<svg width="300" height="300" viewBox="0 0 300 300" fill="none" xmlns="http://www.w3.org/2000/svg">
<path d="M100 150C128.5 150 150 128.5 150 100C150 71.5 128.5 50 100 50C71.5 50 50 71.5 50 100C50 128.5 71.5 150 100 150ZM100 75C114.725 75 125 85.275 125 100C125 114.725 114.725 125 100 125C85.275 125 75 114.725 75 100C75 85.275 85.275 75 100 75ZM112.5 162.5H87.5C53.0375 162.5 25 190.537 25 225V237.5H50V225C50 204.325 66.825 187.5 87.5 187.5H112.5C133.175 187.5 150 204.325 150 225V237.5H175V225C175 190.537 146.963 162.5 112.5 162.5ZM229.55 32.95L211.875 50.625C228.388 67.1625 237.5 89.1375 237.5 112.5C237.5 135.862 228.388 157.837 211.875 174.375L229.55 192.05C250.8 170.787 262.5 142.537 262.5 112.5C262.5 82.4625 250.8 54.2125 229.55 32.95Z" fill="white"/>
<path d="M194.188 68.3L176.513 86C183.6 93.0625 187.5 102.475 187.5 112.5C187.5 122.525 183.6 131.938 176.513 139L194.188 156.7C205.988 144.9 212.5 129.213 212.5 112.5C212.5 95.7875 205.988 80.1 194.188 68.3Z" fill="white"/>
</svg>
