<svg width="300" height="300" viewBox="0 0 300 300" fill="none" xmlns="http://www.w3.org/2000/svg">
<path d="M270 150C270 83.7 216.3 30 150 30C83.7 30 30 83.7 30 150C30 216.3 83.7 270 150 270C216.3 270 270 216.3 270 150ZM108.45 53.55L130.8 109.5C121.5 113.85 113.85 121.5 109.5 130.8L53.55 108.45C64.2146 83.8425 83.8425 64.2146 108.45 53.55ZM246.45 108.45L190.5 130.8C186.15 121.5 178.5 113.85 169.2 109.5L191.55 53.55C216.15 64.2 235.8 83.85 246.45 108.45ZM150 180C133.5 180 120 166.5 120 150C120 133.5 133.5 120 150 120C166.5 120 180 133.5 180 150C180 166.5 166.5 180 150 180ZM53.55 191.55L109.5 169.2C113.85 178.5 121.5 186.15 130.8 190.5L108.45 246.45C83.8425 235.785 64.2146 216.158 53.55 191.55ZM191.55 246.45L169.2 190.5C178.5 186.15 186.15 178.5 190.5 169.2L246.45 191.55C235.785 216.158 216.158 235.785 191.55 246.45Z" fill="white"/>
</svg>
