<svg width="300" height="300" viewBox="0 0 300 300" fill="none" xmlns="http://www.w3.org/2000/svg">
<path d="M18.75 84.3764C18.75 81.8904 19.7376 79.5062 21.4955 77.7483L58.9983 40.2455C60.7562 38.4876 63.1404 37.5 65.6264 37.5C73.9774 37.5 78.1596 47.5967 72.2545 53.5017L34.7517 91.0045C28.8467 96.9096 18.75 92.7274 18.75 84.3764ZM34.7517 156.63C28.8467 162.535 18.75 158.352 18.75 150.001C18.75 147.515 19.7376 145.131 21.4955 143.373L124.623 40.2454C126.381 38.4876 128.765 37.5 131.251 37.5C139.602 37.5 143.785 47.5967 137.88 53.5017L127.21 64.1716C125.865 65.5167 124.275 66.5855 122.577 67.4438C112.327 72.6263 103.769 80.5747 97.8478 90.3444C95.2517 94.6278 92.5157 98.8655 88.9741 102.407L34.7517 156.63ZM18.75 232.031C18.75 219.045 23.9088 206.585 33.0916 197.402L82.0856 148.408C86.3248 144.169 93.7277 146.053 96.6269 151.301C98.4834 154.661 98.1422 158.873 95.4271 161.587L78.4985 178.509C77.1371 179.869 75.6457 181.092 74.1777 182.337C72.587 183.686 71.1115 185.166 69.7668 186.761C68.5725 188.177 67.3951 189.611 66.0853 190.921L23.338 233.677C21.6178 235.397 18.752 234.464 18.75 232.031ZM176.531 53.9589C172.293 58.1993 174.178 65.6024 179.426 68.5019C182.786 70.3585 186.998 70.0177 189.713 67.3031L203.503 53.5124C209.412 47.6034 205.227 37.5 196.871 37.5C194.382 37.5 191.996 38.4887 190.237 40.2485L176.531 53.9589ZM207.577 88.5335C205.146 90.9634 204.63 94.6267 205.989 97.7832C208.489 103.589 216.485 106.138 220.955 101.668L265.578 57.052C270.45 52.1808 270.884 44.0536 264.762 40.8923C260.659 38.7733 255.815 40.3036 252.549 43.5688L207.577 88.5335ZM48.8972 262.5C42.6347 262.457 41.1046 255.014 45.533 250.586C51.2177 244.901 60.9375 248.927 60.9375 256.966V261.124C60.9375 261.489 60.7925 261.839 60.5344 262.097C60.2763 262.355 59.9262 262.5 59.5611 262.5H49.2188C49.1115 262.5 49.0044 262.5 48.8972 262.5ZM201.562 173.438C208.724 173.438 216.218 172.039 221.282 166.975L278.503 109.762C280.262 108.004 281.25 105.618 281.25 103.131C281.25 94.7775 271.15 90.5939 265.243 96.5009L197.68 164.064C194.221 167.523 196.671 173.438 201.562 173.438ZM239.062 210.938C239.062 212.37 240.794 213.087 241.807 212.074L278.505 175.377C280.262 173.619 281.25 171.235 281.25 168.749C281.25 160.398 271.153 156.215 265.248 162.12L245.555 181.814C238.981 188.388 238.177 198.562 238.936 207.828C239.02 208.854 239.062 209.891 239.062 210.938ZM250.781 262.5H245.122C241.775 262.5 239.062 259.787 239.062 256.441C239.062 254.834 239.701 253.293 240.837 252.157L266.905 226.089C272.198 220.795 281.25 224.545 281.25 232.031C281.25 236.683 278.693 240.822 275.403 244.11L262.862 256.646C259.573 259.934 255.432 262.493 250.781 262.5ZM98.4375 206.25C97.1943 206.25 96.002 206.744 95.1229 207.623C94.2439 208.502 93.75 209.694 93.75 210.938V253.125C93.75 258.303 89.5527 262.5 84.375 262.5C79.1973 262.5 75 258.303 75 253.125V210.938C75 204.721 77.4693 198.76 81.8647 194.365C86.2601 189.969 92.2215 187.5 98.4375 187.5H201.562C204.64 187.5 207.688 188.106 210.532 189.284C213.375 190.462 215.959 192.188 218.135 194.365C220.312 196.541 222.038 199.125 223.216 201.968C224.394 204.812 225 207.86 225 210.938V253.125C225 258.303 220.803 262.5 215.625 262.5C210.447 262.5 206.25 258.303 206.25 253.125V210.938C206.25 209.694 205.756 208.502 204.877 207.623C203.998 206.744 202.806 206.25 201.562 206.25H98.4375ZM121.875 121.875C121.875 114.416 124.838 107.262 130.113 101.988C135.387 96.7132 142.541 93.75 150 93.75C157.459 93.75 164.613 96.7132 169.887 101.988C175.162 107.262 178.125 114.416 178.125 121.875C178.125 129.334 175.162 136.488 169.887 141.762C164.613 147.037 157.459 150 150 150C142.541 150 135.387 147.037 130.113 141.762C124.838 136.488 121.875 129.334 121.875 121.875ZM150 75C137.568 75 125.645 79.9386 116.854 88.7294C108.064 97.5201 103.125 109.443 103.125 121.875C103.125 134.307 108.064 146.23 116.854 155.021C125.645 163.811 137.568 168.75 150 168.75C162.432 168.75 174.355 163.811 183.146 155.021C191.936 146.23 196.875 134.307 196.875 121.875C196.875 109.443 191.936 97.5201 183.146 88.7294C174.355 79.9386 162.432 75 150 75Z" fill="white"/>
</svg>
