<svg width="485" height="96" viewBox="0 0 485 96" fill="none" xmlns="http://www.w3.org/2000/svg">
<path d="M143.241 75.72C141.161 75.72 139.481 75.2133 138.201 74.2C136.921 73.1867 135.988 71.64 135.401 69.56L122.921 27.64C122.441 25.8267 122.388 24.2533 122.761 22.92C123.188 21.5867 123.961 20.5467 125.081 19.8C126.255 19 127.641 18.6 129.241 18.6C131.055 18.6 132.575 19.0533 133.801 19.96C135.028 20.8667 135.961 22.5467 136.601 25L146.441 61.32H142.041L164.201 23.72C165.268 21.9067 166.388 20.6 167.561 19.8C168.788 19 170.335 18.6 172.201 18.6C174.175 18.6 175.695 19.08 176.761 20.04C177.881 20.9467 178.521 22.12 178.681 23.56C178.841 25 178.441 26.4933 177.481 28.04L151.321 70.76C150.255 72.52 149.108 73.8 147.881 74.6C146.655 75.3467 145.108 75.72 143.241 75.72ZM175.704 75.72C173.944 75.72 172.477 75.3467 171.304 74.6C170.184 73.8533 169.517 72.84 169.304 71.56C169.09 70.28 169.464 68.8667 170.424 67.32L198.264 22.76C199.33 21 200.477 19.7467 201.704 19C202.984 18.2533 204.61 17.88 206.584 17.88C208.557 17.88 210.184 18.3867 211.464 19.4C212.744 20.36 213.677 21.8533 214.264 23.88L227.464 67.08C228.05 68.9467 228.157 70.5467 227.784 71.88C227.41 73.16 226.69 74.12 225.624 74.76C224.557 75.4 223.277 75.72 221.784 75.72C219.65 75.72 218.024 75.24 216.904 74.28C215.837 73.2667 214.984 71.64 214.344 69.4L212.104 60.6L216.184 63.56H184.184L189.144 60.92L182.824 71.64C182.077 72.9733 181.117 73.9867 179.944 74.68C178.77 75.3733 177.357 75.72 175.704 75.72ZM204.984 33.96L192.584 54.92L190.824 52.28H213.224L210.744 55.24L205.144 33.96H204.984ZM241.519 75C238.959 75 237.066 74.3067 235.839 72.92C234.666 71.48 234.266 69.5067 234.639 67L241.359 24.68C241.733 22.3867 242.586 20.68 243.919 19.56C245.253 18.44 247.066 17.88 249.359 17.88C251.813 17.88 253.626 18.5733 254.799 19.96C255.973 21.3467 256.346 23.32 255.919 25.88L250.079 62.76H268.479C270.506 62.76 272.079 63.1867 273.199 64.04C274.373 64.8933 274.959 66.12 274.959 67.72C274.959 69.96 274.293 71.7467 272.959 73.08C271.679 74.36 269.893 75 267.599 75H241.519ZM296.288 75.72C294.208 75.72 292.528 75.2133 291.248 74.2C289.968 73.1867 289.035 71.64 288.448 69.56L275.968 27.64C275.488 25.8267 275.435 24.2533 275.808 22.92C276.235 21.5867 277.008 20.5467 278.128 19.8C279.301 19 280.688 18.6 282.288 18.6C284.101 18.6 285.621 19.0533 286.848 19.96C288.075 20.8667 289.008 22.5467 289.648 25L299.488 61.32H295.088L317.248 23.72C318.315 21.9067 319.435 20.6 320.608 19.8C321.835 19 323.381 18.6 325.248 18.6C327.221 18.6 328.741 19.08 329.808 20.04C330.928 20.9467 331.568 22.12 331.728 23.56C331.888 25 331.488 26.4933 330.528 28.04L304.368 70.76C303.301 72.52 302.155 73.8 300.928 74.6C299.701 75.3467 298.155 75.72 296.288 75.72ZM339.103 75C336.436 75 334.49 74.3067 333.263 72.92C332.036 71.48 331.636 69.4533 332.063 66.84L338.543 25.64C338.916 23.2933 339.796 21.5333 341.183 20.36C342.57 19.1867 344.436 18.6 346.783 18.6H373.503C375.423 18.6 376.89 19 377.903 19.8C378.916 20.6 379.423 21.7467 379.423 23.24C379.423 25.32 378.81 26.9733 377.583 28.2C376.41 29.3733 374.783 29.96 372.703 29.96H351.903L350.223 40.68H368.223C370.143 40.68 371.61 41.08 372.623 41.88C373.636 42.68 374.143 43.8267 374.143 45.32C374.143 47.4 373.53 49.0533 372.303 50.28C371.076 51.4533 369.45 52.04 367.423 52.04H348.383L346.543 63.64H366.303C368.223 63.64 369.69 64.04 370.703 64.84C371.716 65.64 372.223 66.7867 372.223 68.28C372.223 70.36 371.61 72.0133 370.383 73.24C369.21 74.4133 367.61 75 365.583 75H339.103ZM400.954 75.72C398.661 75.72 396.954 74.9733 395.834 73.48C394.714 71.9867 394.368 69.88 394.794 67.16L400.554 30.6H389.194C387.168 30.6 385.594 30.1733 384.474 29.32C383.354 28.4133 382.794 27.2133 382.794 25.72C382.794 23.48 383.434 21.7467 384.714 20.52C385.994 19.24 387.754 18.6 389.994 18.6H428.634C430.661 18.6 432.208 19.0267 433.274 19.88C434.394 20.7333 434.954 21.9067 434.954 23.4C434.954 25.64 434.314 27.4 433.034 28.68C431.808 29.96 430.074 30.6 427.834 30.6H415.274L409.274 68.44C408.901 70.84 408.021 72.6533 406.634 73.88C405.301 75.1067 403.408 75.72 400.954 75.72Z" fill="white"/>
<g filter="url(#filter0_i_1_469)">
<path d="M62.1896 48C62.1896 74.5097 121.429 96 78.2259 96C35.0229 96 0 74.5097 0 48C0 21.4903 35.0229 0 78.2259 0C121.429 0 62.1896 21.4903 62.1896 48Z" fill="url(#paint0_linear_1_469)"/>
</g>
<defs>
<filter id="filter0_i_1_469" x="0" y="0" width="99" height="96" filterUnits="userSpaceOnUse" color-interpolation-filters="sRGB">
<feFlood flood-opacity="0" result="BackgroundImageFix"/>
<feBlend mode="normal" in="SourceGraphic" in2="BackgroundImageFix" result="shape"/>
<feColorMatrix in="SourceAlpha" type="matrix" values="0 0 0 0 0 0 0 0 0 0 0 0 0 0 0 0 0 0 127 0" result="hardAlpha"/>
<feOffset dx="5"/>
<feGaussianBlur stdDeviation="10"/>
<feComposite in2="hardAlpha" operator="arithmetic" k2="-1" k3="1"/>
<feColorMatrix type="matrix" values="0 0 0 0 0 0 0 0 0 0 0 0 0 0 0 0 0 0 0.25 0"/>
<feBlend mode="normal" in2="shape" result="effect1_innerShadow_1_469"/>
</filter>
<linearGradient id="paint0_linear_1_469" x1="15" y1="14" x2="94" y2="96" gradientUnits="userSpaceOnUse">
<stop stop-color="#77ADFF"/>
<stop offset="1" stop-color="#2000FF"/>
</linearGradient>
</defs>
</svg>
